<?xml version="1.0" standalone="no"?>
<!DOCTYPE svg PUBLIC "-//W3C//DTD SVG 20010904//EN"
 "http://www.w3.org/TR/2001/REC-SVG-20010904/DTD/svg10.dtd">
<svg version="1.0" xmlns="http://www.w3.org/2000/svg"
 width="666.000000pt" height="375.000000pt" viewBox="0 0 666.000000 375.000000"
 preserveAspectRatio="xMidYMid meet">

<g transform="translate(0.000000,375.000000) scale(0.100000,-0.100000)"
fill="#000000" stroke="none">
<path d="M3196 1834 c-13 -12 -16 -38 -16 -119 0 -81 3 -107 16 -119 14 -14
80 -16 575 -16 367 0 567 4 580 10 17 10 19 22 19 129 0 99 -3 120 -16 125 -9
3 -269 6 -579 6 -499 0 -565 -2 -579 -16z m186 -40 c39 -27 49 -40 23 -31 -8
4 -24 -6 -40 -24 l-25 -31 -2 34 -1 33 -4 -35 c-9 -72 -74 -98 -109 -44 -21
32 -11 57 38 94 51 37 71 38 120 4z m191 -40 c9 -10 147 -11 147 -1 0 11 114
-4 119 -16 2 -5 7 -4 11 3 4 7 15 10 24 7 14 -6 14 -11 -2 -54 -13 -36 -23
-49 -41 -51 -17 -3 -22 0 -19 10 4 10 -9 12 -61 10 -36 -1 -67 -7 -69 -12 -5
-14 -29 -13 -34 1 -2 7 -32 11 -81 11 l-77 -1 0 49 0 50 38 0 c21 0 42 -3 45
-6z m377 -2 c0 -4 15 -7 33 -7 31 0 32 -2 32 -40 l0 -40 -50 0 c-49 0 -50 0
-55 35 -4 19 -4 41 -2 48 4 13 42 17 42 4z m316 -13 c10 -9 14 -9 14 0 0 6 7
11 15 11 19 0 19 -6 -1 -63 -12 -35 -21 -47 -36 -47 -10 0 -16 5 -13 10 3 6
-3 10 -14 10 -17 0 -21 7 -23 33 l-1 32 -4 -32 c-4 -31 -7 -33 -44 -33 l-39 0
-1 43 -2 42 -6 -40 c-4 -27 -12 -41 -23 -43 -15 -3 -18 4 -18 37 0 30 -4 41
-15 41 -8 0 -15 5 -15 12 0 15 207 3 226 -13z"/>
<path d="M3530 1710 c0 -32 1 -33 17 -17 16 16 16 18 0 34 -16 16 -17 15 -17
-17z"/>
<path d="M3680 1704 c0 -8 5 -12 10 -9 6 4 8 11 5 16 -9 14 -15 11 -15 -7z"/>
<path d="M3970 1705 c0 -8 5 -15 10 -15 6 0 10 7 10 15 0 8 -4 15 -10 15 -5 0
-10 -7 -10 -15z"/>
</g>
</svg>
